# xmcd CD database file
#
# Track frame offsets:
#	150
#	11609
#	22594
#	36813
#	45916
#	60871
#	73802
#	85813
#	109233
#	119584
#	134526
#	146831
#	158667
#	171842
#	186498
#	200926
#	213394
#	225526
#	238743
#	253001
#
# Disc length: 3559 seconds
#
# Revision: 0
# Processed by: cddbd v1.5PL3 Copyright (c) Steve Scherf et al.
# Submitted via: CDex 1.51
#
DISCID=1c0de514
DTITLE=Ella Fitsgeralf - Ella Et Ses Amis
DYEAR=1900
DGENRE=Jazz
TTITLE0=That OId Black Magic
TTITLE1=Goody Goody
TTITLE2=Oh, Lady Be Good
TTITLE3=Lover, Come Back To Me
TTITLE4=Stairway To The Stars
TTITLE5=Lullaby Of Birdland
TTITLE6=A-Tisket, A-Tasket
TTITLE7=You'll Have To Swing It (Mister Paganini - Parts 1 and 2)
TTITLE8=Between The Devil And The Deep Blue Sea
TTITLE9=I've Got The World On A String
TTITLE10=Baby, It's Cold Outside
TTITLE11=It's Only A Paper Moon
TTITLE12=You Won't Be Satisfied
TTITLE13=Ain't Nobody Business But My Own
TTITLE14=Can Anyone Explain ? (No, No, No!)
TTITLE15=I'm Beginning To See The Light
TTITLE16=Stone Cold Dead In The Market (He Had It Coming)
TTITLE17=Cow Cow Boogie
TTITLE18=Into Each Life Some Raine Must Fall
TTITLE19=Dream A Little Dream Of Me
EXTD=
EXTT0=
EXTT1=
EXTT2=
EXTT3=
EXTT4=
EXTT5=
EXTT6=
EXTT7=
EXTT8=
EXTT9=
EXTT10=
EXTT11=
EXTT12=
EXTT13=
EXTT14=
EXTT15=
EXTT16=
EXTT17=
EXTT18=
EXTT19=
PLAYORDER=
